<?xml version="1.0" encoding="utf-8"?>
<!-- Generator: Adobe Illustrator 26.0.3, SVG Export Plug-In . SVG Version: 6.00 Build 0)  -->
<svg version="1.0" id="katman_1" xmlns="http://www.w3.org/2000/svg" xmlns:xlink="http://www.w3.org/1999/xlink" x="0px" y="0px"
	 viewBox="0 0 318.2 238.2" style="enable-background:new 0 0 318.2 238.2;" xml:space="preserve">
<style type="text/css">
	.st0{clip-path:url(#SVGID_00000170278721351607272060000018435184302653529004_);}
	.st1{filter:url(#Adobe_OpacityMaskFilter);}
	.st2{clip-path:url(#SVGID_00000075851747548551762000000003825513282394222741_);}
	.st3{enable-background:new    ;}
	.st4{clip-path:url(#SVGID_00000075851747548551762000000003825513282394222741_);fill:#FFFFFF;}
	
		.st5{clip-path:url(#SVGID_00000075851747548551762000000003825513282394222741_);mask:url(#SVGID_00000105405122561886833070000005263056876392539808_);}
	.st6{clip-path:url(#SVGID_00000007425209313569739690000015466051814373283719_);fill:#4A4A4A;}
	.st7{filter:url(#Adobe_OpacityMaskFilter_00000173850988933233778470000010933373249190300853_);}
	
		.st8{clip-path:url(#SVGID_00000075851747548551762000000003825513282394222741_);mask:url(#SVGID_00000003072862798645154830000010616449942885897629_);}
	.st9{clip-path:url(#SVGID_00000054973771912334529960000010191233625420049838_);fill:#4A4A4A;}
	.st10{filter:url(#Adobe_OpacityMaskFilter_00000110447375730341634250000017703624960246228362_);}
	
		.st11{clip-path:url(#SVGID_00000075851747548551762000000003825513282394222741_);mask:url(#SVGID_00000013168695122497192500000007087554684162244737_);}
	.st12{clip-path:url(#SVGID_00000049913656337034438240000003261872510866921645_);fill:#4A4A4A;}
</style>
<g>
	<defs>
		<rect id="SVGID_1_" x="59.1" y="19.1" width="200" height="200"/>
	</defs>
	<clipPath id="SVGID_00000013193071100279488200000013859130035076012717_">
		<use xlink:href="#SVGID_1_"  style="overflow:visible;"/>
	</clipPath>
	<g style="clip-path:url(#SVGID_00000013193071100279488200000013859130035076012717_);">
		<defs>
			<rect id="SVGID_00000066499457774751833880000004796340799107011207_" x="59.1" y="19.1" width="200" height="200"/>
		</defs>
		<clipPath id="SVGID_00000175321981379889864670000011001080464359229331_">
			<use xlink:href="#SVGID_00000066499457774751833880000004796340799107011207_"  style="overflow:visible;"/>
		</clipPath>
		<defs>
			<filter id="Adobe_OpacityMaskFilter" filterUnits="userSpaceOnUse" x="70.6" y="75.8" width="60.9" height="86.7">
				<feColorMatrix  type="matrix" values="1 0 0 0 0  0 1 0 0 0  0 0 1 0 0  0 0 0 1 0"/>
			</filter>
		</defs>
		
			<mask maskUnits="userSpaceOnUse" x="70.6" y="75.8" width="60.9" height="86.7" id="SVGID_00000028313234924231062810000005951090639652553607_">
			<g class="st1">
				
					<rect x="70.6" y="75.8" style="clip-path:url(#SVGID_00000175321981379889864670000011001080464359229331_);" width="60.9" height="86.7"/>
				<g class="st3">
					
						<rect x="70.6" y="75.8" style="clip-path:url(#SVGID_00000175321981379889864670000011001080464359229331_);fill:#FFFFFF;" width="60.9" height="86.7"/>
				</g>
			</g>
		</mask>
		
			<g style="clip-path:url(#SVGID_00000175321981379889864670000011001080464359229331_);mask:url(#SVGID_00000028313234924231062810000005951090639652553607_);">
			<g>
				<defs>
					<rect id="SVGID_00000150076522236585962720000009660896270138689710_" x="70.6" y="75.8" width="60.9" height="86.7"/>
				</defs>
				<clipPath id="SVGID_00000160875136706672058520000013144524107945865869_">
					<use xlink:href="#SVGID_00000150076522236585962720000009660896270138689710_"  style="overflow:visible;"/>
				</clipPath>
				<path style="clip-path:url(#SVGID_00000160875136706672058520000013144524107945865869_);fill:#4A4A4A;" d="M101.1,102.5
					c-7.4,0-14.6,2.7-20.2,7.6V80.8c0-2.8-2.3-5.1-5.1-5.1c-2.8,0-5.1,2.3-5.1,5.1v51.6c0,16.5,13.7,30,30.5,30s30.5-13.4,30.5-30
					C131.5,115.9,117.9,102.5,101.1,102.5 M101.1,152.3c-11.1,0-20.2-8.9-20.2-19.9c0-11,9.1-19.9,20.2-19.9
					c11.1,0,20.2,8.9,20.2,19.9C121.3,143.4,112.2,152.3,101.1,152.3"/>
			</g>
		</g>
		<defs>
			
				<filter id="Adobe_OpacityMaskFilter_00000070108190819536113630000009136127841585111701_" filterUnits="userSpaceOnUse" x="134.8" y="104.7" width="55.5" height="55.8">
				<feColorMatrix  type="matrix" values="1 0 0 0 0  0 1 0 0 0  0 0 1 0 0  0 0 0 1 0"/>
			</filter>
		</defs>
		
			<mask maskUnits="userSpaceOnUse" x="134.8" y="104.7" width="55.5" height="55.8" id="SVGID_00000086658135582931781100000006299802376417016194_">
			<g style="filter:url(#Adobe_OpacityMaskFilter_00000070108190819536113630000009136127841585111701_);">
				
					<rect x="134.8" y="104.7" style="clip-path:url(#SVGID_00000175321981379889864670000011001080464359229331_);" width="55.5" height="55.8"/>
				<g class="st3">
					<path style="clip-path:url(#SVGID_00000175321981379889864670000011001080464359229331_);fill:#FFFFFF;" d="M162.6,160.4
						c-15.3,0-27.7-12.5-27.7-27.8c0-15.3,12.4-27.8,27.7-27.8c15.3,0,27.7,12.5,27.7,27.8C190.4,147.9,177.9,160.4,162.6,160.4
						L162.6,160.4z M162.6,110.6c-12.1,0-22,9.9-22,22c0,12.1,9.9,22,22,22c12.1,0,22-9.9,22-22
						C184.6,120.5,174.8,110.6,162.6,110.6"/>
				</g>
			</g>
		</mask>
		
			<g style="clip-path:url(#SVGID_00000175321981379889864670000011001080464359229331_);mask:url(#SVGID_00000086658135582931781100000006299802376417016194_);">
			<g>
				<defs>
					<rect id="SVGID_00000181809035768558387360000006177984850138279849_" x="134.8" y="104.7" width="55.5" height="55.8"/>
				</defs>
				<clipPath id="SVGID_00000117656445515676094790000011258262828658934677_">
					<use xlink:href="#SVGID_00000181809035768558387360000006177984850138279849_"  style="overflow:visible;"/>
				</clipPath>
				
					<rect x="134.8" y="104.7" style="clip-path:url(#SVGID_00000117656445515676094790000011258262828658934677_);fill:#4A4A4A;" width="55.5" height="55.8"/>
			</g>
		</g>
		<defs>
			
				<filter id="Adobe_OpacityMaskFilter_00000023253236268166679710000017089025770613269414_" filterUnits="userSpaceOnUse" x="194.8" y="76.4" width="52.8" height="82.6">
				<feColorMatrix  type="matrix" values="1 0 0 0 0  0 1 0 0 0  0 0 1 0 0  0 0 0 1 0"/>
			</filter>
		</defs>
		
			<mask maskUnits="userSpaceOnUse" x="194.8" y="76.4" width="52.8" height="82.6" id="SVGID_00000101073107951510146520000012444181849604049292_">
			<g style="filter:url(#Adobe_OpacityMaskFilter_00000023253236268166679710000017089025770613269414_);">
				
					<rect x="194.8" y="76.4" style="clip-path:url(#SVGID_00000175321981379889864670000011001080464359229331_);" width="52.8" height="82.6"/>
				<g class="st3">
					<path style="clip-path:url(#SVGID_00000175321981379889864670000011001080464359229331_);fill:#FFFFFF;" d="M221.2,106.3
						c14.5,0,26.3,11.8,26.3,26.3s-11.8,26.3-26.3,26.3c-14.5,0-26.3-11.8-26.3-26.3V78c0-0.8,0.7-1.4,1.5-1.4
						c0.8,0,1.4,0.6,1.4,1.4v42.7C202.2,112.2,211,106.3,221.2,106.3L221.2,106.3z M221.2,156c12.9,0,23.4-10.5,23.4-23.4
						c0-12.9-10.5-23.4-23.4-23.4c-12.9,0-23.4,10.5-23.4,23.4C197.9,145.5,208.3,156,221.2,156"/>
				</g>
			</g>
		</mask>
		
			<g style="clip-path:url(#SVGID_00000175321981379889864670000011001080464359229331_);mask:url(#SVGID_00000101073107951510146520000012444181849604049292_);">
			<g>
				<defs>
					<rect id="SVGID_00000093878755757613007380000000036899796016214167_" x="194.8" y="76.4" width="52.8" height="82.6"/>
				</defs>
				<clipPath id="SVGID_00000073698885175530844150000008585901860642722954_">
					<use xlink:href="#SVGID_00000093878755757613007380000000036899796016214167_"  style="overflow:visible;"/>
				</clipPath>
				
					<rect x="194.8" y="76.4" style="clip-path:url(#SVGID_00000073698885175530844150000008585901860642722954_);fill:#4A4A4A;" width="52.8" height="82.6"/>
			</g>
		</g>
	</g>
</g>
</svg>
